# xmcd
#
# Track frame offsets:
#	150
#	7371
#	22585
#	39374
#	44423
#	64820
#	88297
#	105874
#	124164
#	136931
#	155705
#
# Disc length: 2429 seconds
#
# Revision: 2
# Processed by: cddbd v1.5.2PL0 Copyright (c) Steve Scherf et al.
# Submitted via: EasyCDDAExtractor 12.0.0.1
#
DISCID=8b097b0b
DTITLE=윤상 - 移徙
DYEAR=2002
DGENRE=Country
TTITLE0=Intro
TTITLE1=소리
TTITLE2=이사(移徙)
TTITLE3=Repeat
TTITLE4=A Fairy Tale
TTITLE5=사랑하오
TTITLE6=Runner`s High
TTITLE7=재회
TTITLE8=El Camino
TTITLE9=소월에게 묻기를
TTITLE10=Ni  Volas Interparoli
EXTD=
EXTT0=
EXTT1=
EXTT2=
EXTT3=
EXTT4=
EXTT5=
EXTT6=
EXTT7=
EXTT8=
EXTT9=
EXTT10=
PLAYORDER=
